<svg width="124" height="124" viewBox="0 0 124 124" fill="none" xmlns="http://www.w3.org/2000/svg">
<circle cx="62" cy="62" r="62" fill="#99A18E"/>
<path d="M63 60.3617L63 27.6383C63 27.2859 62.552 27 62 27C61.448 27 61 27.2859 61 27.6383L61 60.3617C61 60.7141 61.448 61 62 61C62.552 61 63 60.7141 63 60.3617Z" fill="white"/>
<path d="M72.4072 37.759C72.4072 37.6535 72.3688 37.548 72.2927 37.4673L62.4567 27.1359C62.383 27.0593 62.2833 27.0156 62.179 27.0156C62.0747 27.0156 61.975 27.0593 61.9013 27.1359L52.07 37.4681C51.9171 37.6288 51.9171 37.89 52.07 38.0507C52.223 38.2114 52.4717 38.2114 52.6247 38.0507L62.179 28.0103L71.7373 38.0507C71.8902 38.2114 72.1389 38.2114 72.2919 38.0507C72.3688 37.9699 72.4072 37.8645 72.4072 37.759Z" fill="white" stroke="white" stroke-width="0.681818"/>
<path d="M34.8 76.76H35.988V82.286H43.422V76.76H44.592V89H43.422V83.366H35.988V89H34.8V76.76ZM50.6965 80.954C51.6205 80.954 52.3525 81.194 52.8925 81.674C53.4445 82.142 53.7205 82.82 53.7205 83.708V89H52.9105L52.7125 87.56C52.4125 88.052 52.0045 88.442 51.4885 88.73C50.9845 89.006 50.3905 89.144 49.7065 89.144C48.9265 89.144 48.3085 88.946 47.8525 88.55C47.3965 88.154 47.1685 87.614 47.1685 86.93C47.1685 86.054 47.5345 85.37 48.2665 84.878C48.9985 84.374 49.9585 84.122 51.1465 84.122C51.7465 84.122 52.2325 84.146 52.6045 84.194V83.654C52.6045 83.102 52.4245 82.688 52.0645 82.412C51.7045 82.124 51.2125 81.98 50.5885 81.98C49.7845 81.98 48.9085 82.202 47.9605 82.646L47.5825 81.71C48.6625 81.206 49.7005 80.954 50.6965 80.954ZM49.8865 88.118C50.7025 88.118 51.3505 87.848 51.8305 87.308C52.3225 86.756 52.5805 86.024 52.6045 85.112C52.2205 85.064 51.7885 85.04 51.3085 85.04C50.3605 85.04 49.6225 85.202 49.0945 85.526C48.5785 85.838 48.3205 86.282 48.3205 86.858C48.3205 87.254 48.4585 87.566 48.7345 87.794C49.0105 88.01 49.3945 88.118 49.8865 88.118ZM61.2358 84.914C61.6918 85.046 62.0518 85.274 62.3158 85.598C62.5798 85.922 62.7118 86.33 62.7118 86.822C62.7118 87.506 62.4778 88.04 62.0098 88.424C61.5418 88.808 60.9178 89 60.1378 89H56.4118V81.044H59.8318C60.5998 81.044 61.2058 81.236 61.6498 81.62C62.1058 82.004 62.3338 82.514 62.3338 83.15C62.3338 83.978 61.9678 84.566 61.2358 84.914ZM57.5098 82.034V84.464H59.8138C60.2818 84.464 60.6358 84.35 60.8758 84.122C61.1158 83.894 61.2358 83.6 61.2358 83.24C61.2358 82.892 61.1158 82.604 60.8758 82.376C60.6358 82.148 60.2818 82.034 59.8138 82.034H57.5098ZM60.1198 88.01C60.6118 88.01 60.9838 87.896 61.2358 87.668C61.4878 87.428 61.6138 87.116 61.6138 86.732C61.6138 86.348 61.4878 86.042 61.2358 85.814C60.9838 85.574 60.6118 85.454 60.1198 85.454H57.5098V88.01H60.1198ZM68.2873 80.846C69.3793 80.846 70.2373 81.194 70.8613 81.89C71.4973 82.586 71.8153 83.522 71.8153 84.698C71.8153 84.938 71.7973 85.196 71.7613 85.472H65.3893C65.4733 86.3 65.7973 86.96 66.3613 87.452C66.9253 87.932 67.5913 88.172 68.3593 88.172C68.8993 88.172 69.3553 88.094 69.7273 87.938C70.1113 87.77 70.4653 87.524 70.7893 87.2L71.4193 87.992C70.5793 88.796 69.5653 89.198 68.3773 89.198C67.5853 89.198 66.8773 89.024 66.2533 88.676C65.6293 88.316 65.1433 87.818 64.7953 87.182C64.4473 86.546 64.2733 85.82 64.2733 85.004C64.2733 84.236 64.4413 83.54 64.7773 82.916C65.1253 82.28 65.6053 81.776 66.2173 81.404C66.8293 81.032 67.5193 80.846 68.2873 80.846ZM68.2693 81.872C67.5373 81.872 66.9073 82.112 66.3793 82.592C65.8513 83.072 65.5273 83.708 65.4073 84.5H70.7353C70.7113 83.672 70.4773 83.03 70.0333 82.574C69.5893 82.106 69.0013 81.872 68.2693 81.872ZM78.1132 80.882C78.8572 80.882 79.5292 81.062 80.1292 81.422C80.7292 81.77 81.1972 82.256 81.5332 82.88C81.8692 83.504 82.0372 84.206 82.0372 84.986C82.0372 85.79 81.8692 86.51 81.5332 87.146C81.1972 87.782 80.7292 88.28 80.1292 88.64C79.5292 89 78.8512 89.18 78.0952 89.18C77.4472 89.18 76.8532 89.048 76.3132 88.784C75.7732 88.508 75.3352 88.142 74.9992 87.686C75.0232 88.502 75.0352 89.216 75.0352 89.828V92.96H73.9372V81.044H74.7652L74.9992 82.376C75.3472 81.908 75.7852 81.542 76.3132 81.278C76.8532 81.014 77.4532 80.882 78.1132 80.882ZM78.0232 88.154C78.5872 88.154 79.0912 88.022 79.5352 87.758C79.9792 87.494 80.3212 87.128 80.5612 86.66C80.8132 86.18 80.9392 85.64 80.9392 85.04C80.9392 84.44 80.8132 83.9 80.5612 83.42C80.3212 82.94 79.9792 82.568 79.5352 82.304C79.0912 82.04 78.5872 81.908 78.0232 81.908C77.1352 81.908 76.4032 82.196 75.8272 82.772C75.2632 83.336 74.9812 84.074 74.9812 84.986C74.9812 85.61 75.1072 86.162 75.3592 86.642C75.6232 87.122 75.9832 87.494 76.4392 87.758C76.9072 88.022 77.4352 88.154 78.0232 88.154ZM82.8274 88.964L85.7794 84.806L83.1154 81.08V81.044H84.3754L85.7794 83.042C85.9834 83.318 86.1934 83.642 86.4094 84.014C86.5534 83.762 86.7694 83.432 87.0574 83.024L88.4794 81.044H89.7034V81.08L87.0394 84.806L89.9914 88.964V89H88.7314L87.0934 86.678C86.8534 86.354 86.6254 86 86.4094 85.616C86.1094 86.108 85.8754 86.468 85.7074 86.696L84.0514 89H82.8274V88.964Z" fill="white"/>
</svg>
