<svg width="35" height="17" viewBox="0 0 35 17" fill="none" xmlns="http://www.w3.org/2000/svg">
<path d="M1.61985 8.86925H33.3809C33.7228 8.86925 34.0004 8.87636 34.0004 8.5C34.0004 8.12364 33.7228 8.12759 33.3809 8.12759H2C1.65804 8.12759 1.00037 8.12364 1.00037 8.5C1.00037 8.87636 1.27789 8.86925 1.61985 8.86925Z" fill="#1A1A18"/>
<path d="M26.6205 16C26.6979 16 26.7753 15.9718 26.8345 15.916L34.4118 8.70203C34.468 8.64794 34.5 8.57487 34.5 8.49835C34.5 8.42182 34.468 8.34875 34.4118 8.29467L26.8339 1.08415C26.716 0.971951 26.5244 0.971951 26.4066 1.08415C26.2887 1.19634 26.2887 1.37874 26.4066 1.49093L33.7705 8.49835L26.4066 15.5086C26.2887 15.6208 26.2887 15.8032 26.4066 15.9154C26.4658 15.9718 26.5432 16 26.6205 16Z" fill="#1A1A18"/>
<path d="M1.61985 8.86925H33.3809C33.7228 8.86925 34.0004 8.87636 34.0004 8.5C34.0004 8.12364 33.7228 8.12759 33.3809 8.12759H2C1.65804 8.12759 1.00037 8.12364 1.00037 8.5C1.00037 8.87636 1.27789 8.86925 1.61985 8.86925Z" stroke="#1A1A18" stroke-width="0.681818"/>
<path d="M26.6205 16C26.6979 16 26.7753 15.9718 26.8345 15.916L34.4118 8.70203C34.468 8.64794 34.5 8.57487 34.5 8.49835C34.5 8.42182 34.468 8.34875 34.4118 8.29467L26.8339 1.08415C26.716 0.971951 26.5244 0.971951 26.4066 1.08415C26.2887 1.19634 26.2887 1.37874 26.4066 1.49093L33.7705 8.49835L26.4066 15.5086C26.2887 15.6208 26.2887 15.8032 26.4066 15.9154C26.4658 15.9718 26.5432 16 26.6205 16Z" stroke="#1A1A18" stroke-width="0.681818"/>
</svg>
